<svg width="26" height="26" viewBox="0 0 26 26" fill="none" xmlns="http://www.w3.org/2000/svg">
<g id="SVG" clip-path="url(#clip0_7717_832)">
<path id="Vector" d="M23.6816 14.3379L15.8691 22.1504C15.5664 22.458 15.166 22.6094 14.7656 22.6094C14.3652 22.6094 13.9658 22.4568 13.6611 22.1516C13.0508 21.5413 13.0508 20.5525 13.6611 19.9421L18.8086 14.7969H3.82812C2.96533 14.7969 2.26572 14.0986 2.26572 13.2344C2.26572 12.3701 2.96533 11.6719 3.82812 11.6719H18.8086L13.6621 6.52539C13.0518 5.91504 13.0518 4.92627 13.6621 4.31592C14.2725 3.70557 15.2612 3.70557 15.8716 4.31592L23.6841 12.1284C24.292 12.7412 24.292 13.7275 23.6816 14.3379Z" fill="#3F3F3F"/>
</g>
<defs>
<clipPath id="clip0_7717_832">
<rect width="25" height="25" fill="white" transform="translate(0.703125 0.734375)"/>
</clipPath>
</defs>
</svg>
