<svg width="1005" height="900" viewBox="0 0 1005 900" fill="none" xmlns="http://www.w3.org/2000/svg">
<circle cx="505.184" cy="300" r="298" stroke="white" stroke-width="4"/>
<circle cx="704.316" cy="600" r="298" stroke="white" stroke-width="4"/>
<circle cx="300.684" cy="600" r="298" stroke="white" stroke-width="4"/>
<path d="M469.395 309V307.368H474.243C475.539 307.368 476.683 307.088 477.675 306.528C478.667 305.952 479.443 305.168 480.003 304.176C480.563 303.168 480.843 302.016 480.843 300.72C480.843 299.424 480.563 298.28 480.003 297.288C479.443 296.296 478.667 295.52 477.675 294.96C476.683 294.384 475.539 294.096 474.243 294.096H469.443V292.488H474.291C475.491 292.488 476.595 292.696 477.603 293.112C478.627 293.512 479.515 294.088 480.267 294.84C481.035 295.576 481.627 296.448 482.043 297.456C482.459 298.448 482.667 299.544 482.667 300.744C482.667 301.912 482.459 303 482.043 304.008C481.627 305.016 481.043 305.896 480.291 306.648C479.539 307.384 478.651 307.96 477.627 308.376C476.619 308.792 475.523 309 474.339 309H469.395ZM468.315 309V292.488H470.067V309H468.315ZM492.057 309.24C490.921 309.24 489.905 308.984 489.009 308.472C488.113 307.96 487.401 307.256 486.873 306.36C486.361 305.464 486.105 304.456 486.105 303.336C486.105 302.232 486.361 301.24 486.873 300.36C487.385 299.464 488.081 298.76 488.961 298.248C489.841 297.736 490.825 297.48 491.913 297.48C492.937 297.48 493.841 297.712 494.625 298.176C495.425 298.64 496.049 299.288 496.497 300.12C496.961 300.936 497.193 301.88 497.193 302.952C497.193 303.08 497.185 303.232 497.169 303.408C497.153 303.568 497.121 303.76 497.073 303.984H487.305V302.544H496.161L495.561 303.072C495.577 302.24 495.433 301.528 495.129 300.936C494.841 300.328 494.417 299.864 493.857 299.544C493.313 299.208 492.649 299.04 491.865 299.04C491.049 299.04 490.337 299.216 489.729 299.568C489.121 299.92 488.641 300.416 488.289 301.056C487.953 301.68 487.785 302.424 487.785 303.288C487.785 304.152 487.961 304.912 488.313 305.568C488.681 306.224 489.185 306.736 489.825 307.104C490.481 307.472 491.233 307.656 492.081 307.656C492.769 307.656 493.401 307.536 493.977 307.296C494.553 307.04 495.041 306.664 495.441 306.168L496.521 307.272C495.993 307.896 495.337 308.384 494.553 308.736C493.785 309.072 492.953 309.24 492.057 309.24ZM504.419 309.24C503.811 309.24 503.227 309.16 502.667 309C502.107 308.824 501.595 308.584 501.131 308.28C500.683 307.976 500.291 307.616 499.955 307.2L501.035 306.096C501.483 306.64 501.987 307.048 502.547 307.32C503.123 307.576 503.763 307.704 504.467 307.704C505.219 307.704 505.803 307.56 506.219 307.272C506.651 306.984 506.867 306.584 506.867 306.072C506.867 305.592 506.715 305.216 506.411 304.944C506.107 304.672 505.715 304.456 505.235 304.296C504.771 304.136 504.275 303.984 503.747 303.84C503.219 303.68 502.715 303.488 502.235 303.264C501.755 303.024 501.363 302.696 501.059 302.28C500.771 301.864 500.627 301.32 500.627 300.648C500.627 300.008 500.779 299.456 501.083 298.992C501.403 298.512 501.851 298.144 502.427 297.888C503.019 297.616 503.715 297.48 504.515 297.48C505.363 297.48 506.131 297.632 506.819 297.936C507.507 298.24 508.059 298.688 508.475 299.28L507.395 300.36C507.059 299.928 506.635 299.6 506.123 299.376C505.627 299.136 505.067 299.016 504.443 299.016C503.723 299.016 503.171 299.16 502.787 299.448C502.419 299.72 502.235 300.08 502.235 300.528C502.235 300.96 502.387 301.304 502.691 301.56C502.995 301.8 503.379 302 503.843 302.16C504.323 302.304 504.827 302.456 505.355 302.616C505.883 302.76 506.387 302.96 506.867 303.216C507.347 303.456 507.731 303.792 508.019 304.224C508.323 304.64 508.475 305.208 508.475 305.928C508.475 306.936 508.107 307.744 507.371 308.352C506.651 308.944 505.667 309.24 504.419 309.24ZM512.335 309V297.72H514.039V309H512.335ZM513.175 295.272C512.855 295.272 512.583 295.16 512.359 294.936C512.135 294.696 512.023 294.416 512.023 294.096C512.023 293.76 512.135 293.48 512.359 293.256C512.583 293.032 512.855 292.92 513.175 292.92C513.527 292.92 513.807 293.032 514.015 293.256C514.239 293.48 514.351 293.76 514.351 294.096C514.351 294.416 514.239 294.696 514.015 294.936C513.807 295.16 513.527 295.272 513.175 295.272ZM523.301 313.992C522.165 313.992 521.149 313.776 520.253 313.344C519.373 312.928 518.661 312.336 518.117 311.568L519.221 310.464C519.669 311.072 520.237 311.544 520.925 311.88C521.613 312.216 522.421 312.384 523.349 312.384C524.629 312.384 525.645 312.04 526.397 311.352C527.165 310.664 527.549 309.728 527.549 308.544V305.736L527.885 303.168L527.549 300.624V297.72H529.229V308.544C529.229 309.632 528.981 310.584 528.485 311.4C527.989 312.216 527.293 312.848 526.397 313.296C525.517 313.76 524.485 313.992 523.301 313.992ZM523.421 308.88C522.381 308.88 521.445 308.632 520.613 308.136C519.781 307.64 519.125 306.96 518.645 306.096C518.165 305.232 517.925 304.256 517.925 303.168C517.925 302.08 518.157 301.112 518.621 300.264C519.101 299.4 519.757 298.72 520.589 298.224C521.421 297.728 522.357 297.48 523.397 297.48C524.277 297.48 525.061 297.648 525.749 297.984C526.453 298.32 527.013 298.8 527.429 299.424C527.861 300.032 528.125 300.752 528.221 301.584V304.776C528.125 305.592 527.861 306.312 527.429 306.936C526.997 307.544 526.437 308.024 525.749 308.376C525.061 308.712 524.285 308.88 523.421 308.88ZM523.733 307.272C524.517 307.272 525.197 307.104 525.773 306.768C526.365 306.432 526.821 305.96 527.141 305.352C527.477 304.728 527.645 304 527.645 303.168C527.645 302.352 527.477 301.64 527.141 301.032C526.821 300.424 526.365 299.944 525.773 299.592C525.181 299.24 524.493 299.064 523.709 299.064C522.925 299.064 522.221 299.24 521.597 299.592C520.989 299.944 520.509 300.424 520.157 301.032C519.821 301.64 519.653 302.352 519.653 303.168C519.653 303.968 519.829 304.68 520.181 305.304C520.533 305.928 521.013 306.416 521.621 306.768C522.229 307.104 522.933 307.272 523.733 307.272ZM542.021 309V302.376C542.021 301.384 541.725 300.584 541.133 299.976C540.557 299.352 539.789 299.04 538.829 299.04C538.173 299.04 537.597 299.184 537.101 299.472C536.605 299.76 536.213 300.152 535.925 300.648C535.637 301.144 535.493 301.712 535.493 302.352L534.725 301.92C534.725 301.072 534.925 300.312 535.325 299.64C535.725 298.968 536.261 298.44 536.933 298.056C537.621 297.672 538.405 297.48 539.285 297.48C540.149 297.48 540.917 297.688 541.589 298.104C542.261 298.52 542.781 299.08 543.149 299.784C543.533 300.488 543.725 301.256 543.725 302.088V309H542.021ZM533.813 309V297.72H535.493V309H533.813Z" fill="white"/>
<path d="M257.542 644.24C256.262 644.24 255.158 644 254.23 643.52C253.302 643.024 252.486 642.336 251.782 641.456L253.006 640.256C253.566 641.04 254.214 641.624 254.95 642.008C255.702 642.392 256.59 642.584 257.614 642.584C258.67 642.584 259.526 642.344 260.182 641.864C260.838 641.384 261.166 640.72 261.166 639.872C261.166 639.216 261.014 638.68 260.71 638.264C260.406 637.832 260.006 637.488 259.51 637.232C259.03 636.96 258.494 636.72 257.902 636.512C257.31 636.304 256.718 636.088 256.126 635.864C255.55 635.624 255.014 635.328 254.518 634.976C254.022 634.624 253.622 634.176 253.318 633.632C253.03 633.088 252.886 632.392 252.886 631.544C252.886 630.648 253.102 629.88 253.534 629.24C253.966 628.6 254.558 628.112 255.31 627.776C256.062 627.424 256.918 627.248 257.878 627.248C258.95 627.248 259.902 627.456 260.734 627.872C261.582 628.288 262.286 628.848 262.846 629.552L261.646 630.752C261.134 630.144 260.574 629.68 259.966 629.36C259.358 629.04 258.646 628.88 257.83 628.88C256.87 628.88 256.102 629.104 255.526 629.552C254.95 630 254.662 630.624 254.662 631.424C254.662 632.048 254.806 632.552 255.094 632.936C255.398 633.32 255.798 633.64 256.294 633.896C256.79 634.152 257.326 634.384 257.902 634.592C258.494 634.784 259.086 635 259.678 635.24C260.27 635.48 260.806 635.784 261.286 636.152C261.782 636.52 262.182 636.992 262.486 637.568C262.79 638.128 262.942 638.848 262.942 639.728C262.942 641.152 262.454 642.264 261.478 643.064C260.518 643.848 259.206 644.24 257.542 644.24ZM268.815 644V627.968H270.495V644H268.815ZM265.959 634.232V632.72H273.327V634.232H265.959ZM276.841 644V632.72H278.521V644H276.841ZM278.521 637.424L277.825 637.112C277.825 635.688 278.169 634.56 278.857 633.728C279.561 632.896 280.521 632.48 281.737 632.48C282.297 632.48 282.809 632.584 283.273 632.792C283.737 632.984 284.169 633.296 284.569 633.728L283.465 634.904C283.193 634.6 282.889 634.384 282.553 634.256C282.233 634.128 281.865 634.064 281.449 634.064C280.585 634.064 279.881 634.352 279.337 634.928C278.793 635.488 278.521 636.32 278.521 637.424ZM292.055 644.24C290.983 644.24 290.023 643.984 289.175 643.472C288.327 642.944 287.655 642.24 287.159 641.36C286.679 640.48 286.439 639.488 286.439 638.384C286.439 637.264 286.679 636.264 287.159 635.384C287.655 634.488 288.327 633.784 289.175 633.272C290.023 632.744 290.975 632.48 292.031 632.48C292.895 632.48 293.663 632.656 294.335 633.008C295.023 633.344 295.575 633.824 295.991 634.448C296.423 635.056 296.687 635.768 296.783 636.584V640.112C296.687 640.928 296.423 641.648 295.991 642.272C295.575 642.896 295.023 643.384 294.335 643.736C293.663 644.072 292.903 644.24 292.055 644.24ZM292.319 642.632C293.487 642.632 294.423 642.24 295.127 641.456C295.847 640.672 296.207 639.64 296.207 638.36C296.207 637.512 296.039 636.768 295.703 636.128C295.383 635.472 294.927 634.968 294.335 634.616C293.759 634.248 293.079 634.064 292.295 634.064C291.495 634.064 290.783 634.248 290.159 634.616C289.551 634.984 289.063 635.496 288.695 636.152C288.343 636.792 288.167 637.528 288.167 638.36C288.167 639.192 288.343 639.928 288.695 640.568C289.063 641.208 289.559 641.712 290.183 642.08C290.807 642.448 291.519 642.632 292.319 642.632ZM296.111 644V640.976L296.447 638.192L296.111 635.48V632.72H297.791V644H296.111ZM304.056 644V627.968H305.736V644H304.056ZM301.2 634.232V632.72H308.568V634.232H301.2ZM316.892 644.24C315.756 644.24 314.74 643.984 313.844 643.472C312.948 642.96 312.236 642.256 311.708 641.36C311.196 640.464 310.94 639.456 310.94 638.336C310.94 637.232 311.196 636.24 311.708 635.36C312.22 634.464 312.916 633.76 313.796 633.248C314.676 632.736 315.66 632.48 316.748 632.48C317.772 632.48 318.676 632.712 319.46 633.176C320.26 633.64 320.884 634.288 321.332 635.12C321.796 635.936 322.028 636.88 322.028 637.952C322.028 638.08 322.02 638.232 322.004 638.408C321.988 638.568 321.956 638.76 321.908 638.984H312.14V637.544H320.996L320.396 638.072C320.412 637.24 320.268 636.528 319.964 635.936C319.676 635.328 319.252 634.864 318.692 634.544C318.148 634.208 317.484 634.04 316.7 634.04C315.884 634.04 315.172 634.216 314.564 634.568C313.956 634.92 313.476 635.416 313.124 636.056C312.788 636.68 312.62 637.424 312.62 638.288C312.62 639.152 312.796 639.912 313.148 640.568C313.516 641.224 314.02 641.736 314.66 642.104C315.316 642.472 316.068 642.656 316.916 642.656C317.604 642.656 318.236 642.536 318.812 642.296C319.388 642.04 319.876 641.664 320.276 641.168L321.356 642.272C320.828 642.896 320.172 643.384 319.388 643.736C318.62 644.072 317.788 644.24 316.892 644.24ZM330.454 648.992C329.318 648.992 328.302 648.776 327.406 648.344C326.526 647.928 325.814 647.336 325.27 646.568L326.374 645.464C326.822 646.072 327.39 646.544 328.078 646.88C328.766 647.216 329.574 647.384 330.502 647.384C331.782 647.384 332.798 647.04 333.55 646.352C334.318 645.664 334.702 644.728 334.702 643.544V640.736L335.038 638.168L334.702 635.624V632.72H336.382V643.544C336.382 644.632 336.134 645.584 335.638 646.4C335.142 647.216 334.446 647.848 333.55 648.296C332.67 648.76 331.638 648.992 330.454 648.992ZM330.574 643.88C329.534 643.88 328.598 643.632 327.766 643.136C326.934 642.64 326.278 641.96 325.798 641.096C325.318 640.232 325.078 639.256 325.078 638.168C325.078 637.08 325.31 636.112 325.774 635.264C326.254 634.4 326.91 633.72 327.742 633.224C328.574 632.728 329.51 632.48 330.55 632.48C331.43 632.48 332.214 632.648 332.902 632.984C333.606 633.32 334.166 633.8 334.582 634.424C335.014 635.032 335.278 635.752 335.374 636.584V639.776C335.278 640.592 335.014 641.312 334.582 641.936C334.15 642.544 333.59 643.024 332.902 643.376C332.214 643.712 331.438 643.88 330.574 643.88ZM330.886 642.272C331.67 642.272 332.35 642.104 332.926 641.768C333.518 641.432 333.974 640.96 334.294 640.352C334.63 639.728 334.798 639 334.798 638.168C334.798 637.352 334.63 636.64 334.294 636.032C333.974 635.424 333.518 634.944 332.926 634.592C332.334 634.24 331.646 634.064 330.862 634.064C330.078 634.064 329.374 634.24 328.75 634.592C328.142 634.944 327.662 635.424 327.31 636.032C326.974 636.64 326.806 637.352 326.806 638.168C326.806 638.968 326.982 639.68 327.334 640.304C327.686 640.928 328.166 641.416 328.774 641.768C329.382 642.104 330.086 642.272 330.886 642.272ZM344.734 644.048L339.79 632.72H341.638L345.622 642.176H344.926L349.126 632.72H350.998L345.694 644.048H344.734ZM341.662 648.752L344.758 642.344L345.694 644.048L343.51 648.752H341.662Z" fill="white"/>
<path d="M651 644.24C649.72 644.24 648.616 644 647.688 643.52C646.76 643.024 645.944 642.336 645.24 641.456L646.464 640.256C647.024 641.04 647.672 641.624 648.408 642.008C649.16 642.392 650.048 642.584 651.072 642.584C652.128 642.584 652.984 642.344 653.64 641.864C654.296 641.384 654.624 640.72 654.624 639.872C654.624 639.216 654.472 638.68 654.168 638.264C653.864 637.832 653.464 637.488 652.968 637.232C652.488 636.96 651.952 636.72 651.36 636.512C650.768 636.304 650.176 636.088 649.584 635.864C649.008 635.624 648.472 635.328 647.976 634.976C647.48 634.624 647.08 634.176 646.776 633.632C646.488 633.088 646.344 632.392 646.344 631.544C646.344 630.648 646.56 629.88 646.992 629.24C647.424 628.6 648.016 628.112 648.768 627.776C649.52 627.424 650.376 627.248 651.336 627.248C652.408 627.248 653.36 627.456 654.192 627.872C655.04 628.288 655.744 628.848 656.304 629.552L655.104 630.752C654.592 630.144 654.032 629.68 653.424 629.36C652.816 629.04 652.104 628.88 651.288 628.88C650.328 628.88 649.56 629.104 648.984 629.552C648.408 630 648.12 630.624 648.12 631.424C648.12 632.048 648.264 632.552 648.552 632.936C648.856 633.32 649.256 633.64 649.752 633.896C650.248 634.152 650.784 634.384 651.36 634.592C651.952 634.784 652.544 635 653.136 635.24C653.728 635.48 654.264 635.784 654.744 636.152C655.24 636.52 655.64 636.992 655.944 637.568C656.248 638.128 656.4 638.848 656.4 639.728C656.4 641.152 655.912 642.264 654.936 643.064C653.976 643.848 652.664 644.24 651 644.24ZM665.446 644.24C664.342 644.24 663.342 643.984 662.446 643.472C661.566 642.944 660.862 642.232 660.334 641.336C659.822 640.44 659.566 639.44 659.566 638.336C659.566 637.232 659.822 636.24 660.334 635.36C660.862 634.464 661.566 633.76 662.446 633.248C663.342 632.736 664.342 632.48 665.446 632.48C666.294 632.48 667.086 632.64 667.822 632.96C668.558 633.28 669.182 633.728 669.694 634.304L668.59 635.432C668.206 635 667.742 634.672 667.198 634.448C666.654 634.208 666.07 634.088 665.446 634.088C664.646 634.088 663.934 634.272 663.31 634.64C662.686 635.008 662.198 635.512 661.846 636.152C661.494 636.776 661.318 637.504 661.318 638.336C661.318 639.152 661.494 639.888 661.846 640.544C662.198 641.184 662.686 641.688 663.31 642.056C663.934 642.424 664.646 642.608 665.446 642.608C666.086 642.608 666.678 642.496 667.222 642.272C667.766 642.032 668.23 641.696 668.614 641.264L669.742 642.392C669.214 642.984 668.574 643.44 667.822 643.76C667.086 644.08 666.294 644.24 665.446 644.24ZM677.984 644.24C676.912 644.24 675.952 643.984 675.104 643.472C674.256 642.944 673.584 642.24 673.088 641.36C672.608 640.48 672.368 639.488 672.368 638.384C672.368 637.264 672.608 636.264 673.088 635.384C673.584 634.488 674.256 633.784 675.104 633.272C675.952 632.744 676.904 632.48 677.96 632.48C678.824 632.48 679.592 632.656 680.264 633.008C680.952 633.344 681.504 633.824 681.92 634.448C682.352 635.056 682.616 635.768 682.712 636.584V640.112C682.616 640.928 682.352 641.648 681.92 642.272C681.504 642.896 680.952 643.384 680.264 643.736C679.592 644.072 678.832 644.24 677.984 644.24ZM678.248 642.632C679.416 642.632 680.352 642.24 681.056 641.456C681.776 640.672 682.136 639.64 682.136 638.36C682.136 637.512 681.968 636.768 681.632 636.128C681.312 635.472 680.856 634.968 680.264 634.616C679.688 634.248 679.008 634.064 678.224 634.064C677.424 634.064 676.712 634.248 676.088 634.616C675.48 634.984 674.992 635.496 674.624 636.152C674.272 636.792 674.096 637.528 674.096 638.36C674.096 639.192 674.272 639.928 674.624 640.568C674.992 641.208 675.488 641.712 676.112 642.08C676.736 642.448 677.448 642.632 678.248 642.632ZM682.04 644V640.976L682.376 638.192L682.04 635.48V632.72H683.72V644H682.04ZM688.327 644V627.008H690.007V644H688.327ZM699.509 644.24C698.437 644.24 697.477 643.984 696.629 643.472C695.781 642.944 695.109 642.24 694.613 641.36C694.133 640.48 693.893 639.488 693.893 638.384C693.893 637.264 694.133 636.264 694.613 635.384C695.109 634.488 695.781 633.784 696.629 633.272C697.477 632.744 698.429 632.48 699.485 632.48C700.349 632.48 701.117 632.656 701.789 633.008C702.477 633.344 703.029 633.824 703.445 634.448C703.877 635.056 704.141 635.768 704.237 636.584V640.112C704.141 640.928 703.877 641.648 703.445 642.272C703.029 642.896 702.477 643.384 701.789 643.736C701.117 644.072 700.357 644.24 699.509 644.24ZM699.773 642.632C700.941 642.632 701.877 642.24 702.581 641.456C703.301 640.672 703.661 639.64 703.661 638.36C703.661 637.512 703.493 636.768 703.157 636.128C702.837 635.472 702.381 634.968 701.789 634.616C701.213 634.248 700.533 634.064 699.749 634.064C698.949 634.064 698.237 634.248 697.613 634.616C697.005 634.984 696.517 635.496 696.149 636.152C695.797 636.792 695.621 637.528 695.621 638.36C695.621 639.192 695.797 639.928 696.149 640.568C696.517 641.208 697.013 641.712 697.637 642.08C698.261 642.448 698.973 642.632 699.773 642.632ZM703.565 644V640.976L703.901 638.192L703.565 635.48V632.72H705.245V644H703.565ZM715.684 644.24C714.82 644.24 714.044 644.064 713.356 643.712C712.668 643.36 712.1 642.88 711.652 642.272C711.22 641.648 710.956 640.928 710.86 640.112V636.584C710.956 635.752 711.228 635.032 711.676 634.424C712.124 633.8 712.692 633.32 713.38 632.984C714.084 632.648 714.852 632.48 715.684 632.48C716.724 632.48 717.66 632.744 718.492 633.272C719.324 633.784 719.98 634.488 720.46 635.384C720.956 636.264 721.204 637.264 721.204 638.384C721.204 639.488 720.964 640.48 720.484 641.36C720.004 642.24 719.34 642.944 718.492 643.472C717.66 643.984 716.724 644.24 715.684 644.24ZM715.396 642.632C716.196 642.632 716.9 642.456 717.508 642.104C718.116 641.736 718.588 641.232 718.924 640.592C719.276 639.936 719.452 639.192 719.452 638.36C719.452 637.512 719.276 636.768 718.924 636.128C718.588 635.488 718.116 634.984 717.508 634.616C716.9 634.248 716.204 634.064 715.42 634.064C714.636 634.064 713.94 634.248 713.332 634.616C712.74 634.984 712.276 635.488 711.94 636.128C711.604 636.768 711.436 637.512 711.436 638.36C711.436 639.192 711.604 639.936 711.94 640.592C712.276 641.232 712.74 641.736 713.332 642.104C713.924 642.456 714.612 642.632 715.396 642.632ZM709.852 644V627.008H711.532V635.48L711.196 638.192L711.532 640.976V644H709.852ZM725.091 644V632.72H726.795V644H725.091ZM725.931 630.272C725.611 630.272 725.339 630.16 725.115 629.936C724.891 629.696 724.779 629.416 724.779 629.096C724.779 628.76 724.891 628.48 725.115 628.256C725.339 628.032 725.611 627.92 725.931 627.92C726.283 627.92 726.563 628.032 726.771 628.256C726.995 628.48 727.107 628.76 727.107 629.096C727.107 629.416 726.995 629.696 726.771 629.936C726.563 630.16 726.283 630.272 725.931 630.272ZM731.401 644V627.008H733.081V644H731.401ZM737.687 644V632.72H739.391V644H737.687ZM738.527 630.272C738.207 630.272 737.935 630.16 737.711 629.936C737.487 629.696 737.375 629.416 737.375 629.096C737.375 628.76 737.487 628.48 737.711 628.256C737.935 628.032 738.207 627.92 738.527 627.92C738.879 627.92 739.159 628.032 739.367 628.256C739.591 628.48 739.703 628.76 739.703 629.096C739.703 629.416 739.591 629.696 739.367 629.936C739.159 630.16 738.879 630.272 738.527 630.272ZM745.748 644V627.968H747.428V644H745.748ZM742.892 634.232V632.72H750.26V634.232H742.892ZM757.542 644.048L752.598 632.72H754.446L758.43 642.176H757.734L761.934 632.72H763.806L758.502 644.048H757.542ZM754.47 648.752L757.566 642.344L758.502 644.048L756.318 648.752H754.47Z" fill="white"/>
<path d="M496.332 394.961C497.855 394.972 499.304 395.156 500.814 395.302C501.358 395.355 501.85 395.4 502.373 395.258C503.511 394.947 505.337 394.833 506.291 395.636C507.569 396.712 508.646 397.474 509.067 399.213C509.488 400.956 508.99 402.496 507.449 403.584C506.3 404.395 504.617 404.311 503.263 404.311C501.997 404.311 500.73 404.311 499.464 404.311C498.301 404.311 497.187 404.608 496.035 404.742C494.663 404.901 493.212 405.53 491.813 405.18C491.107 405.003 490.978 404.532 490.136 404.586C489.754 404.611 489.482 404.761 489.149 404.92C488.687 405.14 488.11 405.118 487.679 405.38C487.284 405.62 486.431 406.121 486.329 406.582C486.071 407.742 486.047 408.857 486.047 410.04C486.047 410.933 486.222 411.855 486.997 412.415C489.165 413.983 491.512 413.444 493.987 413.988C494.907 414.191 495.884 414.196 496.822 414.196C498.9 414.196 500.978 414.196 503.056 414.196C504.041 414.196 504.728 413.98 505.668 413.632C507.056 413.118 508.459 412.665 509.853 412.178C511.161 411.72 512.387 411.578 513.757 411.458C514.305 411.41 517.023 411.666 517.037 411.094C517.066 409.816 515.968 408.8 515.968 407.517C515.968 406.914 515.968 406.31 515.968 405.706C515.968 405.335 516.373 405.236 516.651 405.439C517.447 406.023 518.258 406.981 518.833 407.784C519.463 408.667 519.289 409.783 519.53 410.812C519.666 411.391 520.022 411.727 520.243 412.222C520.532 412.873 520.661 413.563 520.807 414.255C521.021 415.275 521.155 416.383 521.044 417.432C520.875 419.02 517.312 419.735 516.109 420.066C514.537 420.498 512.932 420.73 511.352 421.112C509.995 421.441 508.689 421.924 507.337 422.278C505.33 422.803 503.3 422.908 501.245 423.138C499.301 423.356 497.333 423.527 495.382 423.65C493.089 423.796 490.944 423.756 488.896 422.641C487.958 422.13 486.685 421.674 485.616 421.573C484.12 421.431 482.413 421.676 480.971 421.276C480.263 421.079 479.513 421.11 479.242 420.296C479.08 419.812 479.113 419.291 478.96 418.804C478.842 418.433 478.595 418.186 478.566 417.773C478.54 417.384 478.299 416.996 478.299 416.6C478.299 416.386 478.413 415.922 478.655 415.858C479.745 415.573 478.745 418.246 478.633 418.471C478.279 419.178 477.813 419.97 477.572 420.727C477.19 421.922 477.134 423.085 476.489 424.2C475.967 425.1 475.06 427.095 473.958 427.287C472.67 427.511 474.204 425.067 474.529 424.66C475.017 424.05 475.335 423.324 475.791 422.686C476.043 422.332 476.439 421.208 475.954 421.083C475.072 420.854 473.594 421.778 473.357 422.641C472.952 424.118 473.177 425.809 473.03 427.316C472.928 428.365 473.985 428.738 474.826 429.216C476.381 430.1 478.067 430.76 479.872 430.76C480.964 430.76 481.971 430.025 483.034 430.314C485.119 430.881 486.574 432.884 488.703 433.483C489.612 433.739 490.362 433.951 491.256 433.609C492.252 433.229 493.292 433.02 494.284 432.63C495.038 432.333 495.955 432.012 496.763 431.888C500.373 431.33 504.177 432.252 507.798 431.813C509.337 431.627 510.826 431.036 512.347 430.737C514.405 430.334 516.462 429.691 518.447 429.023C519.748 428.585 521.362 428.563 522.528 427.821C523.206 427.39 524.115 427.342 524.866 427.086C525.528 426.861 526.223 426.398 526.758 425.951C527.367 425.442 528.096 425.044 528.658 424.482C529.39 423.75 529.692 422.568 529.845 421.573C529.948 420.906 530.255 420.361 530.068 419.658C530.031 419.518 529.696 418.466 529.979 419.049C530.376 419.868 530.484 420.786 530.877 421.595C531.565 423.011 532.754 424.141 533.363 425.58C533.51 425.929 533.588 426.165 533.6 426.559C533.617 427.124 533.962 427.539 534.053 428.103C534.22 429.144 534.387 430.571 533.066 430.76" stroke="#EBFF09" stroke-width="7" stroke-linecap="round"/>
<path d="M467.076 428.621C467.076 429.205 467.085 429.789 467.076 430.372C467.068 430.939 466.316 431.209 465.874 431.493C465.048 432.024 465.473 433.443 465.934 434.098C466.455 434.839 467.262 435.352 467.848 436.042C468.623 436.954 469.16 438.15 469.859 439.137C470.765 440.415 472.339 441.538 473.651 442.38C474.454 442.894 475.638 443.341 476.575 443.508C478.26 443.806 479.893 444.116 481.614 444.116C481.695 444.116 482.357 444.188 482.282 443.931C482.208 443.678 481.771 443.366 481.651 443.27C480.635 442.455 479.549 441.706 478.475 440.97C477.608 440.375 476.828 439.989 475.863 439.619C475.086 439.321 474.516 438.729 473.763 438.395C472.942 438.03 472.059 437.782 471.21 437.497C470.668 437.315 470.14 437.086 469.585 436.947C469.269 436.868 469.976 437.48 470.238 437.675C473.176 439.857 477.133 440.742 480.612 441.637C481.205 441.79 481.82 441.964 482.438 441.979C482.67 441.984 482.966 441.924 483.187 442.009C484.204 442.396 485.184 442.899 486.223 443.27C486.846 443.493 487.66 443.492 488.182 443.916C489.347 444.863 491.406 444.447 492.753 444.257C493.475 444.155 493.338 443.885 493.836 443.715C495.976 442.988 498.422 443.047 500.679 443.047C502.638 443.047 504.597 443.047 506.556 443.047C507.78 443.047 508.631 442.978 509.754 442.513C510.528 442.193 511.132 441.85 511.81 441.385C513.06 440.529 514.504 440.11 515.951 439.715C517.988 439.16 519.953 439.039 522.066 438.921C522.939 438.873 523.754 438.686 524.53 438.268C524.796 438.125 524.981 437.893 525.212 437.704C525.922 437.124 526.784 436.695 527.609 436.309C529.041 435.64 530.578 435.285 532.025 434.662C533.246 434.136 534.191 433.479 535.468 433.096C536.438 432.805 537.594 432.871 538.377 433.593C539.055 434.218 538.941 435.372 538.941 436.22C538.941 436.846 538.941 437.472 538.941 438.098C538.941 438.429 538.797 439.348 539.312 438.714C539.786 438.13 539.858 437.149 540.485 436.688C540.879 436.397 542.774 438.315 542.963 438.625C543.408 439.352 543.045 440.829 542.414 441.311C540.866 442.494 538.243 442.782 536.344 443.24C534.899 443.589 533.477 443.646 532.054 444.086C530.181 444.666 528.351 445.445 526.466 445.964C524.622 446.472 522.758 447.028 520.878 447.381C518.873 447.759 516.952 448.338 515.239 449.459C513.621 450.518 511.985 451.106 510.177 451.782C507.76 452.686 504.843 453.188 502.267 453.303C500.399 453.387 498.432 453.11 496.582 453.392C495.513 453.555 494.536 453.6 493.451 453.6C491.813 453.6 489.867 453.9 488.375 453.066C487.936 452.821 487.532 452.524 487.069 452.324C486.645 452.14 486.197 452.188 485.77 452.042C484.822 451.716 484.026 451.29 483.017 451.173C481.335 450.979 479.574 450.73 477.926 450.35C475.38 449.762 472.843 449.459 470.431 448.465C468.149 447.524 465.882 445.626 464.642 443.456C464.104 442.514 463.452 441.706 462.802 440.851C462.247 440.121 460.304 440.115 459.507 440.472C457.177 441.517 456.686 445.072 456.286 447.277C456.084 448.393 455.827 449.417 455.863 450.55C455.885 451.229 455.799 453.44 456.568 453.763C457.41 454.117 457.686 453.892 458.409 453.689C460.277 453.165 461.179 454.984 462.171 456.168C464.76 459.258 468.394 459.611 472.219 459.611C474.88 459.611 477.371 460.758 480.019 460.813C483.553 460.887 486.703 462.89 490.252 463.143C493.651 463.386 497.197 463.368 500.604 463.188C502.591 463.083 504.59 463.158 506.563 462.876C508.063 462.662 509.457 462.097 510.92 461.719C512.362 461.345 513.933 461.248 515.313 460.68C516.463 460.206 517.589 459.966 518.786 459.648C520.787 459.117 522.722 458.508 524.782 458.201C526.503 457.945 528.14 457.22 529.843 456.828C532.659 456.181 534.719 454.954 536.982 453.229C538.721 451.903 540.96 450.526 543.127 450.112C544.236 449.9 545.66 449.938 546.659 449.326C547.119 449.044 547.397 448.595 547.891 448.376C548.484 448.112 548.634 447.76 549.345 447.663C549.893 447.589 550.682 447.343 551.23 447.515C551.79 447.69 551.905 448.639 552.024 449.096C552.411 450.569 552.806 451.876 552.937 453.422C552.99 454.043 553.029 454.751 552.944 455.374C552.78 456.577 551.607 457.311 550.577 457.771C547.849 458.989 545.341 460.693 542.748 462.164C540.54 463.416 538.56 464.824 536.047 465.399C533.745 465.927 531.754 467.017 529.509 467.692C526.966 468.458 524.469 469.323 521.91 470.045C519.87 470.621 517.812 471.265 515.713 471.596C514.039 471.86 512.345 471.786 510.667 471.989C506.369 472.509 502.206 472.358 497.903 472.301C496.301 472.28 494.941 471.962 493.406 471.692C491.597 471.375 489.899 471.061 488.13 470.55C485.715 469.851 483.17 470.015 480.701 469.674C478.321 469.345 476.124 468.687 473.919 467.744C471.955 466.905 470.199 466.29 468.063 466.29C465.647 466.29 463.23 466.29 460.813 466.29C458.932 466.29 457.045 466.462 455.418 465.377C454.56 464.805 454.418 464.242 453.897 463.396C453.277 462.39 452.691 461.341 451.997 460.383C451.584 459.813 451.144 459.243 450.691 458.706C450.353 458.305 449.843 457.493 449.37 457.244C447.404 456.209 447.358 465.456 447.76 466.817C448.119 468.031 448.667 469.178 449.14 470.349C449.326 470.809 449.639 471.357 449.697 471.863C449.744 472.28 449.661 472.717 449.823 473.117C450.287 474.264 451.491 475.292 452.383 476.086C454.381 477.864 456.374 478.108 458.973 478.193C461.654 478.281 464.267 478.807 466.958 478.876C468.616 478.919 470.289 478.897 471.945 479.009C473.383 479.107 474.835 479.494 476.264 479.677C480.03 480.161 483.72 480.316 487.506 480.316C491.647 480.316 495.788 480.316 499.929 480.316C503.949 480.316 507.968 480.316 511.988 480.316C513.881 480.316 515.862 480.465 517.747 480.241C519.45 480.039 521.047 479.54 522.734 479.291C524.629 479.012 526.484 478.937 528.299 478.282C530.329 477.551 532.391 476.932 534.429 476.227C536.357 475.559 538.358 474.943 540.114 473.889C541.663 472.959 542.909 471.676 544.388 470.653C545.503 469.883 546.455 468.972 547.527 468.16C548.256 467.608 549.063 467.223 549.88 466.824C550.836 466.358 551.693 465.742 552.625 465.236C553.95 464.517 555.307 464.291 556.573 463.485" stroke="#EBFF09" stroke-width="7" stroke-linecap="round"/>
<path d="M558.176 464.555C558.773 464.853 559.33 465.952 559.63 466.514C559.984 467.175 560.237 467.556 560.343 468.295C560.491 469.331 561.496 470.611 560.165 471.174C559.003 471.666 557.84 471.828 556.781 472.547C555.182 473.632 553.828 474.762 552.655 476.309C551.503 477.829 550.077 479.288 548.514 480.436C546.705 481.764 544.585 483.076 542.443 483.79C541.216 484.199 539.921 484.353 538.659 484.621C536.998 484.973 535.34 485.363 533.687 485.749C530.491 486.496 526.954 487.1 523.965 488.51C523.791 488.592 523.647 488.598 523.461 488.628C522.008 488.864 520.558 489.084 519.097 489.266C516.062 489.647 513.101 490.246 510.043 490.328C504.604 490.473 499.033 490.038 493.636 490.817C492.109 491.038 490.597 491.377 489.072 491.619C485.603 492.169 482.086 492.246 478.579 492.309C477.2 492.334 475.792 492.383 474.423 492.176C474.155 492.135 473.405 492.081 473.191 491.834C472.936 491.54 473.809 491.323 474.185 491.226C475.359 490.923 476.586 490.869 477.792 490.869C478.594 490.869 479.339 490.934 480.13 491.07C481.56 491.316 483.002 491.27 484.449 491.27C486.227 491.27 487.981 491.239 489.755 491.137C490.235 491.109 490.562 490.887 490.986 490.691C491.379 490.511 491.814 490.501 492.203 490.335C492.867 490.054 490.767 490.454 490.051 490.543C489.102 490.662 488.189 490.733 487.231 490.736C484.727 490.744 482.255 490.78 479.766 490.528C478.494 490.399 477.23 490.494 475.959 490.335C474.726 490.181 473.415 489.801 472.182 489.801C469.812 489.801 467.442 489.801 465.072 489.801C461.833 489.801 457.66 490.369 454.839 488.383C454.051 487.829 453.296 487.535 452.405 487.189C451.336 486.773 450.471 485.974 449.474 485.43C448.493 484.895 447.368 484.631 446.327 484.25C445.457 483.932 445.125 483.259 444.665 482.513C444.283 481.896 443.776 481.359 443.418 480.732C443.123 480.216 443.162 479.607 442.824 479.04C442.545 478.571 442.148 478.135 441.934 477.63C441.888 477.521 441.611 476.262 441.459 476.406C441.026 476.816 440.81 477.5 440.502 478.001C440.17 478.54 439.727 479.003 439.366 479.523C438.72 480.455 438.199 481.453 437.593 482.41C436.86 483.565 436.193 484.382 435.767 485.697C435.163 487.562 436.007 489 436.873 490.706C437.658 492.253 439.052 493.182 440.717 493.675C441.536 493.917 440.681 492.901 441.704 492.814C443.475 492.662 445.119 493.722 446.691 494.357C448.551 495.109 449.899 496.31 451.388 497.623C452.594 498.685 453.683 499.857 455.024 500.754C456.853 501.978 459.153 502.358 461.288 502.713C463.273 503.043 465.251 503.025 467.254 503.025C467.714 503.025 468.174 503.025 468.634 503.025C469.234 503.025 469.984 503.11 468.946 502.669C468.299 502.394 467.686 502.037 467.039 501.771C466.46 501.533 465.838 501.514 465.251 501.318C463.581 500.762 461.801 500.059 460.234 499.255C460.143 499.208 458.968 498.739 459.492 498.75C461.482 498.795 463.486 499.234 465.429 499.626C466.655 499.874 467.937 500.294 469.198 500.353C470.126 500.397 471.06 500.337 471.989 500.368C473.666 500.425 475.253 500.899 476.916 501.006C478.135 501.085 479.246 501.386 480.426 501.711C481.9 502.118 483.406 502.758 484.953 502.758C487.583 502.758 490.212 502.758 492.842 502.758C494.712 502.758 496.582 502.772 498.452 502.758C500.884 502.739 503.187 502.276 505.561 501.808C507.245 501.476 508.922 501.278 510.585 500.836C512.739 500.264 515.089 500.353 517.301 500.353" stroke="#EBFF09" stroke-width="7" stroke-linecap="round"/>
<path d="M517.57 499.286C520.18 499.286 522.794 499.332 525.399 499.138C526.458 499.059 528.157 499.185 529.073 498.492C530.836 497.159 532.709 495.845 534.579 494.671C536.278 493.604 538.229 493.104 540.182 492.741C541.46 492.504 542.699 492.147 543.996 492.014C545.603 491.849 547.208 491.833 548.82 491.799C553.517 491.699 556.811 487.946 560.04 485.12C561.038 484.247 561.911 483.252 562.868 482.337C563.512 481.72 564.191 481.134 564.679 480.378C565.004 479.874 565.993 478.516 565.391 477.914" stroke="#EBFF09" stroke-width="7" stroke-linecap="round"/>
<path d="M566.418 481.344C567.855 482.038 568.214 482.327 568.226 483.922C568.232 484.714 568.226 485.506 568.226 486.299C568.226 487.572 568.22 488.794 568.452 490.048C569.098 493.536 563.943 494.259 561.966 495.773C560.385 496.983 558.724 498.113 557.111 499.28C555.969 500.107 554.744 500.199 553.445 500.577C552.353 500.895 551.421 501.533 550.307 501.833C546.903 502.749 543.708 504.191 540.247 504.913C538.461 505.285 536.6 505.333 534.831 505.75C533.746 506.005 532.781 506.682 531.751 507.089C527.825 508.641 523.512 508.55 519.448 509.549C514.855 510.679 510.272 511.882 505.621 512.763C503.459 513.173 501.238 513.266 499.043 513.282C496.391 513.302 493.697 513.404 491.058 513.115C488.157 512.798 485.24 512.548 482.32 512.747C480.393 512.878 478.47 513.079 476.537 513.123C472.664 513.212 468.768 513.185 464.895 513.132C462.153 513.094 459.061 513.13 456.408 512.437C455.2 512.121 454.193 511.404 453.177 510.721C451.286 509.45 449.637 507.897 447.385 507.323C445.005 506.716 442.504 505.22 440.773 503.49" stroke="#EBFF09" stroke-width="7" stroke-linecap="round"/>
<path d="M437.52 504.646C436.76 503.643 435.612 503.45 434.854 502.485C433.875 501.239 433.685 501.134 432.116 500.588C430.261 499.943 429.044 511.212 429.331 513.004C429.679 515.181 433.088 516.095 434.83 516.966C435.693 517.397 436.357 518.073 437.291 518.359C439.457 519.021 441.672 519.695 443.751 520.592C445.689 521.428 447.791 521.732 449.839 522.201C452.134 522.727 454.357 523.508 456.659 524.002C462.68 525.295 469.493 524.506 475.607 524.53C481.15 524.553 486.722 525.421 492.189 526.224C495.983 526.78 500.031 526.529 503.848 526.428C506.327 526.362 508.885 526.42 511.304 525.815C513.715 525.213 516.347 524.705 518.821 524.567C522.832 524.342 526.436 523.039 530.36 522.105C532.193 521.669 533.64 520.282 535.235 519.223C538.054 517.351 541.478 516.723 544.709 515.885C547.229 515.232 549.639 514.203 552.165 513.532C554.137 513.008 556.406 512.367 558.241 511.467C559.629 510.785 560.891 509.675 562.131 508.753C562.998 508.109 563.912 507.602 564.509 506.688C565.401 505.321 566.701 503.845 567.967 502.809C570.269 500.925 573.406 498.948 576.276 498.211C577.057 498.01 575.901 499.855 575.747 500.3C575.435 501.205 575.159 501.951 575.195 502.917C575.251 504.4 577.226 506.305 578.185 507.324C579.127 508.325 577.816 509.156 577.561 509.966C577.26 510.918 575.635 511.222 574.763 511.347C574.04 511.45 573.625 512.127 573.058 512.523C571.295 513.754 569.226 513.714 567.859 515.561C566.741 517.07 565.978 518.611 564.413 519.824C561.792 521.854 557.918 522.258 554.759 522.994C553.338 523.324 551.727 523.53 550.496 524.35C548.557 525.643 546.335 526.125 544.288 527.148C542.92 527.832 541.763 528.891 540.302 529.405C538.281 530.116 536.113 530.454 534.034 530.942C532.248 531.361 530.648 532.032 528.907 532.515C526.518 533.179 524.066 533.599 521.667 534.232C516.954 535.477 512.157 535.709 507.474 536.934C505.349 537.49 503.266 537.489 501.086 537.498C497.474 537.514 493.869 537.714 490.256 537.714C488.999 537.714 487.704 537.797 486.449 537.69C484.522 537.526 482.69 536.788 480.722 536.67C475.141 536.335 469.433 536.634 463.84 536.634C461.409 536.634 459.772 535.932 457.476 535.217C456.278 534.844 454.818 534.141 453.561 534.04C452.164 533.928 450.793 533.453 449.395 533.272C446.632 532.914 443.541 533.163 440.882 532.323C437.733 531.329 434.49 530.654 431.468 529.261C429.939 528.557 429.314 526.603 427.638 526.019C426.091 525.482 425.024 523.967 423.351 523.642C422.44 523.465 422.178 527.052 422.078 527.736C421.961 528.544 422.089 529.433 421.91 530.222C421.707 531.117 421.048 531.818 420.878 532.84C420.749 533.609 420.422 534.846 420.733 535.625C421.471 537.468 423.623 538.367 425.08 539.54C428.403 542.214 432.791 543.421 436.943 544.03C439.519 544.409 442.101 544.703 444.676 545.063C446.7 545.346 448.577 546.103 450.632 546.36C456.138 547.048 461.833 545.9 467.31 546.708C472.937 547.538 478.606 549.119 484.324 549.169C490.907 549.227 497.774 549.63 504.328 548.917C507.704 548.55 511.128 547.3 514.402 546.456C518.292 545.453 522.226 544.749 526.157 543.946C530.115 543.139 533.953 541.97 537.852 540.932C541.019 540.09 544.244 539.375 547.362 538.363C548.526 537.985 549.605 537.413 550.772 537.042C555.67 535.485 560.791 534.322 565.817 533.284C568.151 532.802 570.014 532.198 571.881 530.678C572.567 530.12 574.067 529.605 574.114 528.589C574.161 527.593 574.524 526.748 574.763 525.779C575.109 524.375 576.752 521.406 578.221 521.072C578.897 520.919 579.643 520.557 580.106 520.028C580.838 519.191 581.882 521.884 582.015 522.369C582.601 524.498 582.713 526.279 582.76 528.469C582.814 531.006 586.138 534.579 583.432 536.622C582.34 537.446 580.964 537.825 579.734 538.387C578.246 539.066 576.815 539.764 575.255 540.272C573.811 540.743 572.211 540.993 570.932 541.845C567.202 544.332 562.775 545.577 558.553 547.056C552.784 549.077 546.706 549.976 540.83 551.643C538.901 552.191 536.977 552.721 535.019 553.156C530.667 554.121 526.684 554.573 522.219 554.573C515.839 554.573 509.459 554.573 503.079 554.573C485.861 554.573 468.642 554.573 451.424 554.573C447.55 554.573 443.675 554.573 439.801 554.573C436.503 554.573 432.952 554.928 429.811 553.72C429.335 553.537 429.083 553.014 428.634 552.748C427.799 552.252 426.949 551.766 426.137 551.235C424.285 550.024 422.081 548.521 419.797 548.521" stroke="#EBFF09" stroke-width="7" stroke-linecap="round"/>
<path d="M418.138 551.898C418.138 555.23 417.877 558.456 417.732 561.766C417.58 565.218 421.198 564.83 423.769 565.191C431.578 566.289 428.472 565.638 431.286 565.51C437.317 565.236 443.169 565.607 449.077 566.846C456.513 568.404 464.4 572.273 472.064 572.273C474.219 572.273 471.945 571.482 471.019 571.112C468.371 570.053 459.985 568.745 462.834 568.616C467.733 568.393 472.698 568.616 477.607 568.616C493.229 568.616 508.772 569.661 524.393 569.661C527.502 569.661 530.275 568.818 533.304 568.645C538.072 568.372 542.416 567.632 546.654 565.481C550.086 563.74 557.093 561.856 558.873 558.458C560.051 556.21 564.246 555.582 566.507 554.917C570.213 553.827 574.205 552.336 578 551.898C579.959 551.672 581.835 550.568 583.805 550.215C584.652 550.063 584.269 552.123 584.269 552.74C584.269 555.497 585.488 558.279 585.952 561.012C586.655 565.15 586.58 565.939 581.976 564.959C579.902 564.518 578.005 564.437 575.91 564.437C573.291 564.437 570.038 568.744 567.551 569.951C565.024 571.177 561.172 571.852 558.38 572.389C556.484 572.754 554.62 573.47 552.749 573.956C550.091 574.648 548.49 576.008 546.074 576.975C541.016 578.998 535.771 580.632 530.285 580.632C523.806 580.632 517.595 582.292 511.159 582.721C504.093 583.192 497.216 583.766 490.117 583.766C479.153 583.766 468.285 582.721 457.32 582.721C451.767 582.721 446.214 582.721 440.66 582.721C439.097 582.721 437.825 581.754 436.249 581.677C430.174 581.377 424.348 580.632 418.254 580.632C416.793 580.632 411.922 579.272 415.932 579.093C420.308 578.899 424.73 579.064 429.109 579.064C434.996 579.064 445.049 577.436 450.006 581.154" stroke="#EBFF09" stroke-width="7" stroke-linecap="round"/>
<path d="M499.637 591.603C511.675 591.603 523.838 594.177 535.713 591.632C538.475 591.04 544.561 590.207 546.539 587.946C548.592 585.6 554.855 588.739 557.161 585.857C558.794 583.815 563.413 583.695 565.723 582.925C567.718 582.26 569.746 581.906 571.731 581.271C573.27 580.778 574.874 581.325 576.433 580.632C580.906 578.644 584.961 579.248 587.404 574.363" stroke="#EBFF09" stroke-width="7" stroke-linecap="round"/>
<path d="M497.022 592.649C492.8 592.649 489.058 591.604 484.949 591.604C479.371 591.604 473.881 591.082 468.289 591.082" stroke="#EBFF09" stroke-width="7" stroke-linecap="round"/>
</svg>
