<svg width="99" height="98" viewBox="0 0 99 98" fill="none" xmlns="http://www.w3.org/2000/svg">
<path d="M44.1191 5.14258C45.2327 -0.319886 53.0389 -0.319951 54.1523 5.14258L56.0684 14.5469C57.0496 19.3606 62.7674 21.4416 66.6133 18.3848L74.126 12.4131C78.4903 8.9438 84.4702 13.9618 81.8115 18.8623L77.2354 27.2969C74.8924 31.6153 77.9353 36.8854 82.8467 37.0156L92.4395 37.2705C98.0127 37.4182 99.3683 45.1054 94.1816 47.1504L85.2539 50.6709C80.6834 52.4731 79.6271 58.466 83.3057 61.7227L90.4912 68.084C94.6651 71.7796 90.7621 78.5396 85.4746 76.7725L76.373 73.7305C71.7135 72.1731 67.0511 76.0842 67.7754 80.9434L69.1914 90.4355C70.0137 95.9498 62.6783 98.6197 59.7637 93.8672L54.7471 85.6865C52.1786 81.4982 46.0928 81.4982 43.5244 85.6865L38.5078 93.8672C35.5932 98.6199 28.2578 95.9498 29.0801 90.4355L30.4951 80.9434C31.2194 76.0842 26.558 72.173 21.8984 73.7305L12.7969 76.7725C7.50918 78.5398 3.6059 71.7796 7.78027 68.084L14.9658 61.7227C18.6445 58.466 17.5873 52.473 13.0166 50.6709L4.08887 47.1504C-1.09734 45.1052 0.258088 37.4184 5.83105 37.2705L15.4248 37.0156C20.3361 36.8854 23.3791 31.6153 21.0361 27.2969L16.459 18.8623C13.8003 13.9619 19.7802 8.94409 24.1445 12.4131L31.6572 18.3848C35.5032 21.442 41.2219 19.3608 42.2031 14.5469L44.1191 5.14258Z" stroke="#2C79DB" stroke-width="1.46271"/>
</svg>
