<svg width="21" height="22" viewBox="0 0 21 22" fill="white" xmlns="http://www.w3.org/2000/svg">
<path fill-rule="evenodd" clip-rule="evenodd" d="M4.21967 2.47637C4.10058 2.01527 4.17552 1.5717 4.428 1.24319C4.68049 0.914686 5.08985 0.728147 5.56606 0.724596L15.7257 0.65031C16.202 0.646898 16.706 0.826758 17.127 1.15034C17.548 1.47392 17.8515 1.91473 17.9707 2.37582L20.5129 12.2126C20.6225 12.6685 20.5421 13.1044 20.2888 13.4265C20.0355 13.7485 19.6297 13.9309 19.1588 13.9344C18.6879 13.9378 18.1895 13.762 17.771 13.4449C17.3526 13.1278 17.0475 12.6946 16.9215 12.2388L15.4642 6.59991L4.43217 20.9535C4.17964 21.2821 3.77017 21.4687 3.29384 21.4721C2.81752 21.4756 2.31335 21.2958 1.89226 20.9721C1.47117 20.6485 1.16765 20.2075 1.04846 19.7464C0.929271 19.2852 1.00419 18.8415 1.25672 18.5129L12.2887 4.1593L6.46472 4.20188C5.98847 4.20529 5.48441 4.02543 5.06341 3.70185C4.6424 3.37827 4.33891 2.93746 4.21967 2.47637Z" fill="white"/>
</svg>
