<svg width="21" height="17" viewBox="0 0 21 17" fill="none" xmlns="http://www.w3.org/2000/svg">
<path d="M1.92908 4.23166L9.76313 9.45436C10.0895 9.67208 10.473 9.78828 10.8653 9.78828C11.2576 9.78828 11.6411 9.67208 11.9674 9.45436L19.8014 4.23166M3.9149 15.1537H17.8156C18.3423 15.1537 18.8474 14.9444 19.2198 14.572C19.5922 14.1996 19.8014 13.6945 19.8014 13.1678V3.23875C19.8014 2.71208 19.5922 2.20698 19.2198 1.83456C18.8474 1.46215 18.3423 1.25293 17.8156 1.25293H3.9149C3.38822 1.25293 2.88312 1.46215 2.51071 1.83456C2.1383 2.20698 1.92908 2.71208 1.92908 3.23875V13.1678C1.92908 13.6945 2.1383 14.1996 2.51071 14.572C2.88312 14.9444 3.38822 15.1537 3.9149 15.1537Z" stroke="white" stroke-width="1.98582" stroke-linecap="round" stroke-linejoin="round"/>
</svg>
