<svg width="27" height="11" viewBox="0 0 27 11" fill="none" xmlns="http://www.w3.org/2000/svg">
<mask id="path-1-outside-1_364_76" maskUnits="userSpaceOnUse" x="0" y="0.876953" width="27" height="10" fill="black">
<rect fill="white" y="0.876953" width="27" height="10"/>
<path d="M20.4444 1.87695L26 5.84859ZM26 5.84859L20.4444 9.82023ZM26 5.84859H1Z"/>
</mask>
<path d="M21.0219 1.06922C20.5758 0.75031 19.9556 0.853413 19.6367 1.29951C19.3178 1.74561 19.4209 2.36577 19.867 2.68468L21.0219 1.06922ZM26 5.84859L26.5774 6.65632C26.8382 6.46992 26.9929 6.16911 26.9929 5.84859C26.9929 5.52807 26.8382 5.22726 26.5774 5.04086L26 5.84859ZM19.867 9.0125C19.4209 9.33141 19.3178 9.95157 19.6367 10.3977C19.9556 10.8438 20.5758 10.9469 21.0219 10.628L19.867 9.0125ZM1 4.85568C0.451631 4.85568 0.00709063 5.30022 0.00709063 5.84859C0.00709063 6.39696 0.451631 6.8415 1 6.8415V4.85568ZM19.867 2.68468L25.4226 6.65632L26.5774 5.04086L21.0219 1.06922L19.867 2.68468ZM25.4226 5.04086L19.867 9.0125L21.0219 10.628L26.5774 6.65632L25.4226 5.04086ZM26 4.85568H1V6.8415H26V4.85568Z" fill="#FE0078" mask="url(#path-1-outside-1_364_76)"/>
</svg>
