<svg width="109" height="112" viewBox="0 0 109 112" fill="#06D1CE" xmlns="http://www.w3.org/2000/svg">
<g clip-path="url(#clip0_375_90)">
<path d="M94.5805 69.1517C95.9321 64.8256 96.6185 60.3136 96.6185 55.7159C96.6185 51.1352 95.937 46.6394 94.5936 42.3268C97.5479 41.1763 100.234 39.3344 102.464 36.8849C106.318 32.6538 108.352 27.1186 108.192 21.3009C107.86 9.28961 98.168 -0.200134 86.5841 0.142634C80.9733 0.308927 75.7618 2.73121 71.9076 6.9632C69.9612 9.1004 68.4804 11.5702 67.5109 14.2411C63.3515 12.8488 59.0163 12.142 54.5975 12.142C50.1763 12.142 45.8378 12.8505 41.6759 14.2445C38.6742 6.00701 30.9919 0.133301 22.0105 0.133301C10.4232 0.133301 0.996704 9.90896 0.996704 21.9245C0.996704 31.2378 6.66146 39.2037 14.6047 42.3158C13.2597 46.6326 12.5774 51.1318 12.5774 55.7159C12.5774 60.3136 13.2638 64.8256 14.6153 69.1517C6.66637 72.2613 0.996704 80.2306 0.996704 89.5481C0.996704 92.8282 1.6823 95.9818 3.03467 98.9208C3.40856 99.7327 4.34614 100.077 5.1291 99.6894C5.91123 99.3017 6.24339 98.3294 5.87032 97.5175C4.72085 95.0197 4.13834 92.3386 4.13834 89.5481C4.13834 79.3296 12.156 71.0158 22.0105 71.0158C31.8657 71.0158 39.8834 79.3296 39.8834 89.5481C39.8834 99.7675 31.8657 108.081 22.0105 108.081C17.5156 108.081 13.2196 106.345 9.91436 103.191C9.27539 102.582 8.28136 102.625 7.69476 103.287C7.10734 103.949 7.14825 104.979 7.78721 105.589C11.6742 109.297 16.7253 111.339 22.0105 111.339C31.005 111.339 38.6971 105.448 41.689 97.1917C45.846 98.5831 50.1804 99.2898 54.5975 99.2898C59.0154 99.2898 63.3507 98.5831 67.5077 97.1925C70.4996 105.449 78.1917 111.339 87.1862 111.339C98.7734 111.339 108.2 101.564 108.2 89.5481C108.2 80.2306 102.53 72.2604 94.5805 69.1517ZM74.1918 9.19967C77.4693 5.60061 81.9027 3.54061 86.6749 3.39893C86.8483 3.39383 87.0201 3.39129 87.1936 3.39129C96.8132 3.39129 104.774 11.3589 105.051 21.3934C105.188 26.3414 103.458 31.0486 100.181 34.6485C96.9032 38.2475 92.4697 40.3075 87.6976 40.4492C87.5241 40.4543 87.3515 40.4568 87.1789 40.4568C77.5592 40.4568 69.598 32.4892 69.3215 22.4548C69.184 17.5067 70.9144 12.7987 74.1918 9.19967ZM66.6265 94.0635C62.7559 95.3684 58.7168 96.0318 54.5975 96.0318C50.4799 96.0318 46.4407 95.3684 42.5701 94.0635C42.8671 92.6059 43.025 91.0957 43.025 89.5481C43.025 77.5326 33.5977 67.7578 22.0105 67.7578C20.5092 67.7578 19.0447 67.9232 17.6318 68.2346C16.3629 64.2062 15.719 60.0022 15.719 55.7159C15.719 51.4432 16.3596 47.2528 17.6204 43.2346C19.0365 43.5485 20.5051 43.7148 22.0105 43.7148C25.6102 43.7148 29.1618 42.7544 32.2829 40.9379C33.0389 40.4976 33.3081 39.5049 32.8834 38.7201C32.4588 37.9353 31.5016 37.657 30.7448 38.0973C28.0925 39.6407 25.0719 40.4568 22.0105 40.4568C12.1552 40.4568 4.13834 32.143 4.13834 21.9236C4.13834 11.7051 12.156 3.39129 22.0105 3.39129C31.8657 3.39129 39.8834 11.7051 39.8834 21.9245C39.8834 26.1998 38.4459 30.3707 35.8361 33.6702C35.2855 34.3651 35.3837 35.3917 36.0545 35.9627C36.7246 36.5328 37.7145 36.4319 38.2651 35.7362C41.3339 31.8563 43.025 26.9506 43.025 21.9236C43.025 20.3634 42.8639 18.8404 42.562 17.3718C46.4358 16.0644 50.4774 15.4 54.5975 15.4C58.7168 15.4 62.7568 16.0635 66.629 17.3692C66.2862 19.0508 66.1324 20.7859 66.1806 22.5481C66.5071 34.3473 75.8665 43.7157 87.178 43.7148C87.3801 43.7148 87.5838 43.7123 87.7876 43.7055C89.0753 43.6673 90.3418 43.5087 91.5763 43.238C92.8363 47.2545 93.4769 51.4449 93.4769 55.7159C93.4769 60.0022 92.8322 64.2062 91.5641 68.2346C90.1511 67.9224 88.6867 67.7578 87.1862 67.7578C75.599 67.7578 66.1725 77.5326 66.1725 89.5481C66.1725 91.0965 66.3296 92.6067 66.6265 94.0635ZM87.1862 108.081C77.331 108.081 69.3141 99.7675 69.3141 89.549C69.3141 79.3296 77.331 71.0158 87.1862 71.0158C97.0415 71.0158 105.058 79.3296 105.058 89.549C105.058 99.7675 97.0415 108.081 87.1862 108.081Z" fill="#06D1CE"/>
<path d="M32.7068 12.3082C32.1651 11.9264 31.4526 11.9324 30.9175 12.3243C30.3824 12.7155 29.8097 13.0421 29.2076 13.3009C27.0494 11.5497 23.9216 11.5701 21.7789 13.502C20.6655 14.5065 19.9692 15.8954 19.8072 17.3954C17.5026 17.0399 15.4196 15.724 14.0533 13.7064C13.7277 13.2262 13.1779 12.9658 12.6159 13.0218C12.0522 13.0786 11.5621 13.4451 11.3322 13.9813C11.2872 14.0865 10.2302 16.5911 10.3652 19.6565C10.4683 22.0024 11.2774 25.0263 14.2284 27.3612C13.1656 27.7166 12.0432 27.8812 10.9248 27.8346C10.1966 27.8049 9.54622 28.2961 9.34987 29.0224C9.15352 29.7486 9.46359 30.5199 10.0993 30.8864C12.5635 32.3058 15.2036 33.0168 17.7832 33.0168C20.2613 33.0168 22.683 32.3601 24.8379 31.0459C27.5402 29.3974 29.5038 26.8733 30.5698 23.7909C30.6033 23.7129 30.6312 23.6314 30.6532 23.5474C31.2014 21.8735 31.4886 20.04 31.4886 18.0954C31.4886 18.0106 31.4861 17.9249 31.4828 17.84C32.3795 16.7438 33.0193 15.4449 33.3498 14.0407C33.5036 13.3807 33.2484 12.69 32.7068 12.3082ZM28.2987 17.5872C28.3297 17.7569 28.3461 17.9325 28.3461 18.1005C28.3461 19.6972 28.117 21.1761 27.681 22.5124C27.6572 22.5734 27.6376 22.6371 27.6212 22.7024C26.8056 25.0695 25.3206 26.9709 23.245 28.2376C21.3453 29.3974 19.165 29.8912 16.943 29.724C17.4518 29.4627 17.9435 29.1658 18.414 28.8349C18.8852 28.5023 19.147 27.9313 19.0963 27.3416C19.0456 26.752 18.6905 26.2378 18.1693 25.9977C15.2363 24.6462 13.668 22.4962 13.5084 19.609C13.4757 19.0176 13.5044 18.45 13.5657 17.93C15.7264 19.8025 18.4941 20.824 21.383 20.7468C22.2346 20.7239 22.9137 20.0018 22.9137 19.1186V18.1302C22.9137 18.1234 22.9137 18.1158 22.9137 18.1081C22.9031 17.2843 23.2401 16.5012 23.8406 15.9607C24.9631 14.9486 26.6698 15.0716 27.6458 16.2356C27.8421 16.469 28.0925 16.6344 28.3657 16.7218C28.27 16.995 28.2447 17.2928 28.2987 17.5872Z" fill="#06D1CE"/>
<path d="M82.0173 23.2091H84.2443V32.9229C84.2443 33.8222 84.9479 34.5519 85.8151 34.5519C86.6832 34.5519 87.3859 33.8222 87.3859 32.9229V23.2091H89.8117C90.6789 23.2091 91.3825 22.4795 91.3825 21.5801C91.3825 20.6808 90.6789 19.9512 89.8117 19.9512H87.3859V15.3934C87.3859 13.8289 88.614 12.5554 90.1234 12.5554H92.1573C93.0245 12.5554 93.7281 11.8257 93.7281 10.9264C93.7281 10.0262 93.0245 9.29736 92.1573 9.29736H90.1234C86.882 9.29736 84.2443 12.0319 84.2443 15.3934V19.9512H82.0173C81.1501 19.9512 80.4465 20.6808 80.4465 21.5801C80.4465 22.4795 81.1501 23.2091 82.0173 23.2091Z" fill="#06D1CE"/>
<path d="M18.4468 97.9731C18.8207 97.9731 19.1946 97.873 19.5275 97.6736L30.2197 91.2687C30.8865 90.87 31.3005 90.1259 31.3005 89.3275C31.3005 88.53 30.8865 87.7859 30.2197 87.3872L19.5275 80.9823C18.8616 80.5827 18.0336 80.5827 17.3669 80.9823C16.7001 81.3811 16.2853 82.1252 16.2853 82.9235V95.7324C16.2853 96.5307 16.7001 97.2748 17.3669 97.6736C17.6998 97.8738 18.0729 97.9731 18.4468 97.9731ZM19.4269 84.6849L27.1795 89.3284L19.4269 93.9719V84.6849Z" fill="#06D1CE"/>
<path d="M94.012 78.0112H80.3607C77.9897 78.0112 76.0605 80.0118 76.0605 82.4715V96.6259C76.0605 99.0855 77.9897 101.086 80.3607 101.086H94.012C96.383 101.086 98.3121 99.0855 98.3121 96.6259V82.4715C98.3121 80.0118 96.383 78.0112 94.012 78.0112ZM95.1705 96.6259C95.1705 97.2894 94.651 97.8281 94.012 97.8281H80.3607C79.7217 97.8281 79.2022 97.2894 79.2022 96.6259V82.4715C79.2022 81.8088 79.7217 81.2692 80.3607 81.2692H94.012C94.651 81.2692 95.1705 81.8088 95.1705 82.4715V96.6259Z" fill="#06D1CE"/>
<path d="M87.1863 84.6245C84.5683 84.6245 82.4379 86.8338 82.4379 89.5488C82.4379 92.2638 84.5683 94.4723 87.1863 94.4723C89.8043 94.4723 91.9348 92.2638 91.9348 89.5488C91.9348 86.8338 89.8043 84.6245 87.1863 84.6245ZM87.1863 91.2143C86.3003 91.2143 85.5795 90.4668 85.5795 89.5488C85.5795 88.63 86.3003 87.8825 87.1863 87.8825C88.0723 87.8825 88.7931 88.63 88.7931 89.5488C88.7931 90.4668 88.0723 91.2143 87.1863 91.2143Z" fill="#06D1CE"/>
<path d="M65.9664 38.8149C65.0984 38.8149 64.3956 39.5446 64.3956 40.4439V41.1744C62.1817 42.5277 59.8541 43.696 57.4611 44.6522C55.545 45.4175 53.566 46.0538 51.564 46.5518C51.2564 46.3066 50.8735 46.1581 50.4562 46.1581H43.264C41.5263 46.1581 40.1134 47.6242 40.1134 49.4255V57.9802C40.1134 59.7823 41.5263 61.2475 43.264 61.2475H44.7015L45.2464 72.1092C45.2897 72.9789 45.9835 73.6534 46.8139 73.6534C46.8409 73.6534 46.8687 73.6525 46.8965 73.6508C47.7629 73.6041 48.4289 72.838 48.3839 71.9395L47.8472 61.2475H50.4562C50.8727 61.2475 51.2564 61.0999 51.5632 60.8547C52.8378 61.1737 54.1059 61.5487 55.3454 61.9755C56.1693 62.258 57.0578 61.7956 57.331 60.9421C57.6043 60.0877 57.1576 59.1655 56.3345 58.883C55.0034 58.4248 53.6421 58.0218 52.2725 57.6799V49.7275C54.4176 49.1947 56.5374 48.5117 58.5901 47.6921C60.5749 46.8988 62.5188 45.9698 64.3948 44.9177V62.4922C63.7043 62.1053 63.0064 61.7362 62.3036 61.3858C61.5215 60.9956 60.5831 61.3366 60.2076 62.1477C59.8312 62.9588 60.1601 63.932 60.9423 64.3223C62.1122 64.906 63.269 65.5491 64.3948 66.2346V66.9618C64.3948 67.8619 65.0984 68.5907 65.9656 68.5907C66.8328 68.5907 67.5364 67.8619 67.5364 66.9618V40.4439C67.5372 39.5446 66.8336 38.8149 65.9664 38.8149ZM49.1317 57.9887L43.255 57.9802L43.264 49.4161H49.1317V57.9887Z" fill="#06D1CE"/>
</g>
<defs>
<clipPath id="clip0_375_90">
<rect width="107.234" height="111.206" fill="#06D1CE" transform="translate(0.787354 0.350586)"/>
</clipPath>
</defs>
</svg>
