<svg width="15" height="16" viewBox="0 0 15 16" fill="none" xmlns="http://www.w3.org/2000/svg">
<path fill-rule="evenodd" clip-rule="evenodd" d="M7.87944 6.85565C8.66945 6.85565 9.4271 6.54182 9.98572 5.9832C10.5443 5.42458 10.8582 4.66693 10.8582 3.87692C10.8582 3.08691 10.5443 2.32926 9.98572 1.77064C9.4271 1.21202 8.66945 0.898193 7.87944 0.898193C7.08944 0.898193 6.33178 1.21202 5.77316 1.77064C5.21454 2.32926 4.90071 3.08691 4.90071 3.87692C4.90071 4.66693 5.21454 5.42458 5.77316 5.9832C6.33178 6.54182 7.08944 6.85565 7.87944 6.85565ZM0.929077 15.7918C0.929077 14.8791 1.10885 13.9753 1.45814 13.132C1.80743 12.2888 2.31939 11.5226 2.96479 10.8772C3.61019 10.2318 4.3764 9.71982 5.21965 9.37053C6.06291 9.02125 6.96671 8.84147 7.87944 8.84147C8.79218 8.84147 9.69598 9.02125 10.5392 9.37053C11.3825 9.71982 12.1487 10.2318 12.7941 10.8772C13.4395 11.5226 13.9515 12.2888 14.3007 13.132C14.65 13.9753 14.8298 14.8791 14.8298 15.7918H0.929077Z" fill="white"/>
</svg>
