<svg width="25" height="25" viewBox="0 0 25 25" fill="none" xmlns="http://www.w3.org/2000/svg">
<path d="M22.6175 18.5684C21.7766 17.7212 19.74 16.4847 18.7519 15.9864C17.4651 15.3383 17.3592 15.2853 16.3478 16.0367C15.6732 16.5382 15.2246 16.9862 14.4351 16.8178C13.6456 16.6494 11.9299 15.6999 10.4276 14.2024C8.92526 12.7049 7.92073 10.9394 7.75181 10.1525C7.58289 9.36562 8.03829 8.9224 8.53499 8.24618C9.23504 7.29301 9.18209 7.13415 8.58371 5.84737C8.11719 4.84655 6.84471 2.82901 5.99428 1.99234C5.08453 1.09372 5.08453 1.25258 4.49833 1.49617C4.0211 1.69696 3.56326 1.94104 3.13054 2.22534C2.28328 2.78824 1.81305 3.25582 1.48421 3.95851C1.15537 4.66121 1.00762 6.3086 2.70585 9.39368C4.40408 12.4788 5.59553 14.0563 8.06159 16.5154C10.5276 18.9746 12.4239 20.2969 15.196 21.8516C18.6253 23.7722 19.9407 23.3978 20.6455 23.0695C21.3503 22.7412 21.82 22.2752 22.384 21.4279C22.669 20.996 22.9136 20.5386 23.1147 20.0617C23.3589 19.4777 23.5177 19.4777 22.6175 18.5684Z" stroke="white" stroke-width="1.69452" stroke-miterlimit="10"/>
</svg>
